<svg fill="#000000" xmlns="http://www.w3.org/2000/svg"  viewBox="0 0 50 50" width="50px" height="50px"><path d="M15,14c6.065,0,11,4.935,11,11s-4.935,11-11,11S4,31.065,4,25S8.935,14,15,14 M15,12C7.82,12,2,17.82,2,25s5.82,13,13,13 s13-5.82,13-13S22.18,12,15,12L15,12z"/><path d="M35.5,15c2.124,0,4.5,4.277,4.5,10s-2.376,10-4.5,10S31,30.723,31,25S33.376,15,35.5,15 M35.5,13c-3.59,0-6.5,5.373-6.5,12 s2.91,12,6.5,12S42,31.627,42,25S39.09,13,35.5,13L35.5,13z"/><path d="M46.377,15.667h0.005H46.377 M45.5,18.577C45.78,20.158,46,22.327,46,25s-0.22,4.842-0.5,6.423 C45.22,29.842,45,27.673,45,25S45.22,20.158,45.5,18.577 M45.5,14c-1.381,0-2.5,4.925-2.5,11s1.119,11,2.5,11S48,31.075,48,25 S46.881,14,45.5,14L45.5,14z"/></svg>